<svg id="Camada_1" data-name="Camada 1" xmlns="http://www.w3.org/2000/svg" xmlns:xlink="http://www.w3.org/1999/xlink" viewBox="0 0 97 20.15">
  <defs>
    <clipPath id="clip-path">
      <rect width="97" height="20" rx="3" style="fill: none"/>
    </clipPath>
    <linearGradient id="Gradiente_sem_nome_6" data-name="Gradiente sem nome 6" x1="25" y1="10" x2="97" y2="10" gradientUnits="userSpaceOnUse">
      <stop offset="0.46" stop-color="#cb2123"/>
      <stop offset="1" stop-color="#752425"/>
    </linearGradient>
    <linearGradient id="Gradiente_sem_nome" data-name="Gradiente sem nome" x1="-267.71" y1="239.55" x2="-267.71" y2="238.55" gradientTransform="matrix(97, 0, 0, -20, 26016, 4791)" gradientUnits="userSpaceOnUse">
      <stop offset="0" stop-color="#bbb" stop-opacity="0.1"/>
      <stop offset="1" stop-opacity="0.1"/>
    </linearGradient>
    <linearGradient id="Gradiente_sem_nome_6-2" x1="15.26" y1="20.66" x2="11.49" y2="1.39" gradientTransform="matrix(1, 0, 0, -1, 0, 22)" xlink:href="#Gradiente_sem_nome_6"/>
    <linearGradient id="Gradiente_sem_nome_4" data-name="Gradiente sem nome 4" x1="11.07" y1="11.25" x2="11.28" y2="16.16" gradientTransform="matrix(1, 0, 0, -1, 0, 22)" gradientUnits="userSpaceOnUse">
      <stop offset="0.1" stop-color="#b75e5a"/>
      <stop offset="0.95" stop-color="#6c272d"/>
    </linearGradient>
    <linearGradient id="Gradiente_sem_nome_3" data-name="Gradiente sem nome 3" x1="14.6" y1="9.49" x2="8.25" y2="7.19" gradientTransform="matrix(1, 0, 0, -1, 0, 22)" gradientUnits="userSpaceOnUse">
      <stop offset="0" stop-color="#a32424"/>
      <stop offset="1" stop-color="#752425"/>
    </linearGradient>
    <linearGradient id="Gradiente_sem_nome_5" data-name="Gradiente sem nome 5" x1="6.3" y1="3.33" x2="7.92" y2="8.02" gradientTransform="matrix(1, 0, 0, -1, 0, 22)" gradientUnits="userSpaceOnUse">
      <stop offset="0.34" stop-color="#d77670"/>
      <stop offset="0.95" stop-color="#a62224"/>
    </linearGradient>
    <linearGradient id="Gradiente_sem_nome_5-2" x1="18.51" y1="2.97" x2="15.2" y2="9.03" xlink:href="#Gradiente_sem_nome_5"/>
  </defs>
  <g style="clip-path: url(#clip-path)">
    <g>
      <path d="M0,0H25V20H0Z" style="fill: #555"/>
      <path d="M25,0H97V20H25Z" style="fill: url(#Gradiente_sem_nome_6)"/>
      <path d="M0,0H97V20H0Z" style="fill: url(#Gradiente_sem_nome)"/>
    </g>
  </g>
  <g style="isolation: isolate">
    <text transform="translate(28.48 14.6)" style="font-size: 12px;fill: #010101;font-family: DejaVuSans, DejaVu Sans"><tspan xml:space="preserve">  </tspan><tspan x="7.63" y="0" style="fill: #fff">AutoCAD</tspan></text>
  </g>
  <path d="M11.17,1.42A88.84,88.84,0,0,0,5.79,13c-.12.32-.23.61-.32.87-.24.64-.38,1-.42,1.09.09-.34.19-.69.29-1.05s.14-.51.22-.77c.56-2,1.3-4.06,1.78-5.48A48.05,48.05,0,0,1,9.92,1.83a.78.78,0,0,1,.69-.41Z" style="fill: #942d32"/>
  <path d="M7.69,12.28c.53-1,4-8,4.21-8.43,0-.1.12-.16.19-.16s.15.06.24.21S14,7.3,14.49,8.4C14,8.65,8.79,11.42,7.69,12.28Zm11.76,6h0a.76.76,0,0,0,.28-.8c-.06-.22-.12-.43-.16-.53s-.18-.61-.38-1.36-.5-1.44-.77-2.16c-.34-.89-.7-1.78-1.06-2.64S16.55,8.85,16.15,8C14.74,4.83,13.44,2.31,13,1.42h-1.8A88.84,88.84,0,0,0,5.79,13c-.12.32-.23.61-.32.87-.24.64-.38,1-.42,1.09l0,.2c-.26.94-.47,1.75-.6,2.33a.74.74,0,0,0,.25.73,4.82,4.82,0,0,0,.65.23c.24-.81,1-2.86,1.25-3.41l0,0h0c.14-.38.39-.94.59-1.49a50.84,50.84,0,0,1,8.45-2.57c.48,1,1,2.11,1.2,2.54l0,0v.06s0,0,0,.06c.22.49,1.24,2.58,1.55,3.31.14.32.26.67.36,1a.32.32,0,0,1,0,.09c.06.16.1.3.13.39a0,0,0,0,0,0,0h0Z" style="fill: url(#Gradiente_sem_nome_6-2)"/>
  <path d="M19.2,15.55c-.24-.72-.5-1.44-.77-2.16-.34-.89-.7-1.78-1.06-2.64S16.55,8.85,16.15,8C14.74,4.83,13.44,2.31,13,1.42h.38a1,1,0,0,1,.84.48,31.49,31.49,0,0,1,1.86,3.94c.21.51.49,1.14.72,1.83.32.93.79,2,1.1,3s.52,1.84.75,2.69S19.05,15,19.2,15.55Z" style="fill: #e02b2b"/>
  <path d="M14.49,8.4c-.43.24-.65.39-1.14.64-.47-1.3-.89-2.44-1-2.7s-.41-.35-.55,0c-.75,2.12-1.32,3.5-1.64,4.39-1.06.58-1.7,1.05-2.47,1.52h0c.53-1,4-8,4.21-8.44h0c.11-.18.17-.25.21-.25s.12.13.23.3S14,7.31,14.49,8.4Z" style="fill: url(#Gradiente_sem_nome_4)"/>
  <path d="M16.82,13.47c-.6,0-1,.12-1.83.2h0c-1.62.18-3.61.44-5.9.82l-.23,0c-.79.14-1.39.28-2.25.45.15-.39.39-1,.59-1.49h0a42.93,42.93,0,0,1,8.45-2.57C16.09,12,16.62,13,16.82,13.47Z" style="fill: url(#Gradiente_sem_nome_3)"/>
  <path d="M8.82,14.54l-.27.67c-.06.18-.13.36-.2.53-.27.71-.51,1.37-.71,1.89,0,.13-.09.24-.12.34s-.14.35-.19.49a4.07,4.07,0,0,1-1.12.12H5.88a3.32,3.32,0,0,1-.58-.11c.24-.81,1-2.86,1.25-3.41l0,0C7.43,14.82,8,14.68,8.82,14.54Z" style="fill: url(#Gradiente_sem_nome_5)"/>
  <path d="M19,18.4h0a3.77,3.77,0,0,1-1,.09,3.78,3.78,0,0,1-1.17-.07c-.08-.22-.17-.48-.28-.75v0l-.34-.89c-.08-.2-.16-.42-.25-.64-.17-.44-.36-.91-.54-1.38S15.14,14,15,13.67c.79-.08,1.23-.15,1.82-.2h0a.14.14,0,0,1,0,.06v0s0,0,0,.06c.22.49,1.24,2.58,1.55,3.31.14.32.26.67.36,1a.32.32,0,0,1,0,.09c.06.16.1.3.13.39Z" style="fill: url(#Gradiente_sem_nome_5-2)"/>
  <path d="M16.83,18.42l-.14,0a4.31,4.31,0,0,1-.4-.18h0l0,0a1,1,0,0,1-.45-.78c0-.33-.08-.66-.14-1-.19-.92-.43-1.83-.71-2.73h0c.33.83.67,1.68,1,2.45.09.22.17.44.25.64C16.46,17.41,16.67,18,16.83,18.42Z" style="fill: #a12930"/>
  <path d="M9.05,14.5c-.11.54-.19,1-.21,1.11a14,14,0,0,0-.1,1.56,1.2,1.2,0,0,1-.55.94l-.25.15-.38.14-.23.06c0-.14.11-.3.19-.49s.08-.21.12-.34c.2-.52.44-1.18.71-1.89.07-.17.14-.35.2-.53l.27-.67Z" style="fill: #a12930"/>
</svg>
