<svg id="Camada_1" data-name="Camada 1" xmlns="http://www.w3.org/2000/svg" xmlns:xlink="http://www.w3.org/1999/xlink" viewBox="0 0 97 20.15">
  <defs>
    <clipPath id="clip-path">
      <rect width="97" height="20" rx="3" style="fill: none"/>
    </clipPath>
    <linearGradient id="Gradiente_sem_nome" data-name="Gradiente sem nome" x1="-267.71" y1="239.55" x2="-267.71" y2="238.55" gradientTransform="matrix(97, 0, 0, -20, 26016, 4791)" gradientUnits="userSpaceOnUse">
      <stop offset="0" stop-color="#bbb" stop-opacity="0.1"/>
      <stop offset="1" stop-opacity="0.1"/>
    </linearGradient>
  </defs>
  <g style="clip-path: url(#clip-path)">
    <g>
      <path d="M0,0H25V20H0Z" style="fill: #555"/>
      <path d="M25,0H97V20H25Z" style="fill: #d32f2f"/>
      <path d="M0,0H97V20H0Z" style="fill: url(#Gradiente_sem_nome)"/>
    </g>
  </g>
  <g style="isolation: isolate">
    <text transform="translate(28.48 14.6)" style="font-size: 12px;fill: #010101;font-family: DejaVuSans, DejaVu Sans"> <tspan x="3.81" y="0" style="fill: #fff">S</tspan><tspan x="11.43" y="0" style="fill: #fff;letter-spacing: -0.03564453125em">k</tspan><tspan x="17.95" y="0" style="fill: #fff">etchUp</tspan></text>
  </g>
  <path d="M14.9,3.41l4.24,3.24-1,7.83L9.6,17,7.83,11.46,6.74,4.55,14.9,3.41m.35-1.33-10,1.39,1.3,8.28,2.19,6.83,10.54-3.12,1.16-9.38-5.23-4Z" style="fill: #d32f2f"/>
  <path d="M15.39,7.1,13.21,4.77l-6.69,1L7,11l2.25,6.83,9.38-3L19.83,6.3ZM8.47,14.46l-.58-1.87,3.41-.66.91,1.66Zm3.45-3.82A10.64,10.64,0,0,1,11,9.14l-3.17.63L7.18,8.23l6.15-1,2.21,2.66S12,10.51,11.92,10.64Z" style="fill: #d32f2f"/>
</svg>
